<?xml version="1.0" encoding="UTF-8"?>
<!DOCTYPE svg PUBLIC "-//W3C//DTD SVG 1.1//EN" "http://www.w3.org/Graphics/SVG/1.1/DTD/svg11.dtd">
<!-- Creator: CorelDRAW -->
<svg xmlns="http://www.w3.org/2000/svg" xml:space="preserve" width="74.6915mm" height="16.2883mm" version="1.1" style="shape-rendering:geometricPrecision; text-rendering:geometricPrecision; image-rendering:optimizeQuality; fill-rule:evenodd; clip-rule:evenodd"
viewBox="0 0 4446.75 969.72"
 xmlns:xlink="http://www.w3.org/1999/xlink"
 xmlns:xodm="http://www.corel.com/coreldraw/odm/2003">
 <defs>
  <style type="text/css">
   <![CDATA[
    .fil0 {fill:#FEFEFE;fill-rule:nonzero}
   ]]>
  </style>
 </defs>
 <g id="Layer_x0020_1">
  <metadata id="CorelCorpID_0Corel-Layer"/>
  <g id="_2368899310832">
   <path class="fil0" d="M662.3 36.96c-1.65,-0.64 -3.42,-0.95 -5.2,-0.95 -8.16,0 -14.78,6.62 -14.78,14.78 0,3.62 1.33,7.11 3.73,9.82 44.35,44.35 130.08,103.48 149.3,96.08 19.22,-7.39 4.44,-2.95 4.44,-5.91l-0.01 0c-36.96,-5.91 -119.74,-84.25 -128.61,-106.43l-7.39 -7.39 -1.48 0z"/>
   <path class="fil0" d="M413.96 0c9.26,0.21 17.94,4.55 23.66,11.82 42.87,70.96 289.73,269.04 388.77,252.78 51.74,-8.87 20.69,-76.87 -26.61,-113.82l10.35 5.91c50.26,34 96.08,121.22 54.69,149.3 -41.39,28.09 -138.95,-11.82 -220.26,-60.61 -90.87,-57.25 -174.62,-126.1 -248.33,-204.04 -3.19,-4.44 -4.89,-9.81 -4.89,-15.3 0,-12.59 8.82,-23.46 21.13,-26.04l1.48 0z"/>
   <path class="fil0" d="M280.92 34c-10.28,5.33 -16.75,15.96 -16.75,27.56 0,5.95 1.71,11.78 4.93,16.78 90.17,116.78 521.82,441.99 640.08,335.56 39.91,-35.48 22.17,-122.7 -44.35,-217.3l-20.69 -19.22c73.91,87.22 104.95,208.43 -16.26,199.57 -168.53,-13.29 -456.78,-254.24 -511.48,-332.59 -4.81,-7.97 -13.44,-12.84 -22.76,-12.84 -3.88,0 -7.72,0.85 -11.23,2.48l-1.48 0.01z"/>
   <path class="fil0" d="M165.62 103.48c5.24,-4.19 11.76,-6.47 18.46,-6.47 8.89,0 17.32,4.01 22.93,10.91 45.82,56.17 190.69,190.69 347.38,283.82 227.65,136 439.03,165.56 382.86,-45.82 2.96,10.35 5.91,23.65 8.87,32.52 2.96,8.88 5.91,36.96 7.39,53.22 1.05,6.95 1.57,13.98 1.57,21.02 0,21.93 -5.1,43.59 -14.87,63.23 -48.78,76.87 -201.04,36.96 -328.17,-26.61 -209.91,-103.47 -396.17,-274.94 -452.34,-342.94 -4.27,-5.46 -6.6,-12.2 -6.6,-19.13 0,-9.14 4.04,-17.83 11.04,-23.73l1.47 0z"/>
   <path class="fil0" d="M884.05 737.64l25.13 -44.35 7.39 -17.74c-130.09,249.83 -747.99,-187.73 -873.64,-344.42 -4.47,-4.85 -10.77,-7.61 -17.37,-7.61 -10.3,0 -19.41,6.67 -22.54,16.47l-0.01 0c-0.64,1.86 -0.96,3.82 -0.96,5.79 0,3.16 0.85,6.27 2.45,9 63.57,130.08 716.94,611.99 879.55,382.86z"/>
   <path class="fil0" d="M0.06 607.55l0 2.95c33.99,72.44 439.03,399.13 640.08,328.17l17.74 -7.39 45.82 -20.69c-198.08,88.7 -572.08,-195.13 -684.42,-313.39 -2.1,-1.72 -4.74,-2.66 -7.45,-2.66 -6.53,0 -11.83,5.3 -11.83,11.83 0,0.39 0.02,0.77 0.06,1.16l0 0.01z"/>
   <path class="fil0" d="M819 211.39c2.96,-2.96 19.22,-17.74 -19.22,-60.61 22.18,36.96 -10.35,32.52 -20.69,31.04 -35.48,-8.87 -87.21,-44.35 -133.04,-79.82 -2.52,-2.87 -6.16,-4.52 -9.98,-4.52 -2.18,0 -4.34,0.54 -6.26,1.57l-0.01 0c-5.26,2.83 -8.56,8.34 -8.56,14.32 0,4.71 2.05,9.19 5.61,12.28 76.86,57.65 164.08,106.44 192.16,85.75z"/>
   <path class="fil0" d="M928.39 629.73c8.18,-11.47 13.74,-24.61 16.28,-38.45 2.95,-14.78 5.91,-35.48 8.87,-50.26l-0.02 -20.68c-28.08,226.17 -388.77,50.26 -641.55,-137.47 -5.7,-4.45 -12.73,-6.87 -19.98,-6.87 -10.13,0 -19.69,4.73 -25.84,12.78l0 0.01c-4.1,5.58 -6.33,12.34 -6.33,19.28 0,10.55 5.12,20.45 13.73,26.55 229.11,165.55 566.15,332.6 654.85,195.13z"/>
   <path class="fil0" d="M829.34 810.07c-137.47,128.61 -434.6,-39.91 -637.12,-195.13 -4.58,-4.05 -10.48,-6.27 -16.59,-6.27 -12.3,0 -22.8,8.91 -24.8,21.04l0 0.02c-0.33,1.68 -0.51,3.42 -0.51,5.15 0,8.47 4.04,16.43 10.85,21.44 193.65,147.82 490.78,304.51 616.42,204l36.96 -33.99 14.78 -16.25z"/>
   <path class="fil0" d="M53.27 725.81c-0.64,1.11 -0.98,2.39 -0.98,3.69 0,1.29 0.34,2.57 0.99,3.69 57.65,75.39 273.47,236.51 427.22,236.51l23.64 0.02 48.78 -5.91c-167.04,19.22 -394.69,-147.82 -489.3,-238 -1.1,-1.54 -2.88,-2.45 -4.77,-2.45 -2.49,0 -4.72,1.57 -5.57,3.91l-0.01 -1.46z"/>
   <path class="fil0" d="M1430.86 286.97l43.02 0 0 122.92c-33.57,26.5 -75.21,40.97 -118.03,40.97 -0.26,0 -0.51,0 -0.77,0 -96.28,0 -167.98,-67.6 -167.98,-161.84 0,-94.24 71.68,-159.79 167.96,-159.79 2.18,-0.07 4.4,-0.13 6.59,-0.13 42.84,0 83.96,17.01 114.28,47.23l-26.64 28.68c-24.45,-23.62 -57.14,-36.86 -91.15,-36.86 -0.33,0 -0.69,0 -1.02,0 -66.74,0.01 -120.86,54.14 -120.86,120.87 0,66.74 54.12,120.87 120.86,120.87 0.89,0.01 1.83,0.03 2.74,0.03 25.11,0 49.78,-7.14 71.01,-20.52l-0.01 -102.42z"/>
   <polygon class="fil0" points="1553.78,112.84 1596.79,112.84 1596.79,446.76 1553.78,446.76 "/>
   <path class="fil0" d="M1656.2 327.94c0.01,-0.67 -0.01,-1.42 -0.01,-2.12 0,-66.74 54.12,-120.87 120.86,-120.87 1.36,0 2.77,0.03 4.12,0.08 1.36,-0.05 2.79,-0.08 4.17,-0.08 65.61,0 118.82,53.21 118.82,118.82 0,1.38 -0.03,2.8 -0.07,4.17 0,0.7 0.02,1.43 0.02,2.13 0,65.61 -53.21,118.82 -118.82,118.82 -1.36,0 -2.77,-0.03 -4.12,-0.07 -2.03,0.1 -4.12,0.15 -6.16,0.15 -65.61,0 -118.82,-53.21 -118.82,-118.82 0,-0.73 0.01,-1.49 0.01,-2.21zm204.86 0c0.69,-4.26 1.03,-8.6 1.03,-12.91 0,-45.25 -36.69,-81.94 -81.94,-81.94 -45.25,0 -81.94,36.69 -81.94,81.94 0,4.32 0.34,8.66 1.02,12.91 -0.68,4.26 -1.02,8.6 -1.02,12.91 0,45.25 36.69,81.94 81.94,81.94 45.25,0 81.94,-36.69 81.94,-81.94 0,-4.32 -0.34,-8.66 -1.02,-12.91l-0.01 0z"/>
   <path class="fil0" d="M2211.38 327.94c0.04,1.36 0.08,2.79 0.08,4.17 0,64.48 -52.29,116.77 -116.77,116.77 -1.39,0 -2.81,-0.03 -4.17,-0.07 -1.66,0.08 -3.35,0.13 -5.03,0.13 -32.01,0 -62.11,-15.29 -81.02,-41.11l0 38.92 -40.97 0.01 0 -333.92 43.03 0 0 131.11c20.23,-24.64 50.45,-38.93 82.34,-38.93 0.55,0 1.11,0.01 1.65,0.01 1.41,-0.05 2.86,-0.08 4.27,-0.08 64.48,0 116.77,52.28 116.77,116.77 0,2.07 -0.07,4.17 -0.17,6.23l0 -0.01zm-45.07 0c0.01,-44.12 -35.77,-79.9 -79.89,-79.9 -44.12,0 -79.9,35.78 -79.9,79.9 0,44.12 35.78,79.9 79.9,79.9 44.12,0 79.9,-35.78 79.9,-79.9l-0.01 0z"/>
   <path class="fil0" d="M2457.21 303.36l0 143.4 -40.98 0 0 -30.73c-17.1,20.96 -42.75,33.14 -69.82,33.14 -2.67,0 -5.36,-0.13 -8.02,-0.35 -55.31,0 -88.09,-28.68 -88.09,-69.66 0,-40.97 24.58,-69.65 96.28,-69.65l67.6 -0.01 0 -8.19c0,-36.88 -20.49,-57.36 -63.51,-57.36 0.01,-0.01 -0.02,-0.01 -0.02,-0.01 -27.21,0 -53.75,8.61 -75.78,24.58l-18.44 -32.77c28.1,-19.96 61.75,-30.74 96.23,-30.74 0.69,0 1.44,0.02 2.11,0.02 65.55,-0.02 102.43,32.76 102.43,98.32zm-43.02 69.65l0 -32.77 -67.6 0c-40.98,0 -53.27,16.4 -53.27,36.88 0,20.49 18.44,38.92 51.22,38.92 2.17,0.19 4.36,0.31 6.55,0.31 27.96,0 53.06,-17.24 63.1,-43.34z"/>
   <polygon class="fil0" points="2537.1,112.84 2580.12,112.84 2580.12,446.76 2537.1,446.76 "/>
   <path class="fil0" d="M1181.17 813.03l19.22 -42.87c27.62,20.95 61.4,32.41 96.1,32.51 45.82,0 65.04,-16.25 65.04,-36.95 0,-63.57 -174.43,-22.18 -174.43,-131.57 0,-47.31 38.43,-87.21 118.26,-87.21 0.9,0 1.88,-0.02 2.82,-0.02 33.68,0 66.85,8.69 96.2,25.15l-17.74 42.88c-24.45,-15.07 -52.59,-23.25 -81.3,-23.67 -44.35,0 -63.57,17.74 -63.57,39.92 0,63.56 174.43,22.17 174.43,130.08 0,47.31 -38.43,87.22 -119.73,87.22 -1,0.01 -2.05,0.02 -3.08,0.02 -40.16,0 -79.37,-12.41 -112.22,-35.49l-0.01 0.01z"/>
   <path class="fil0" d="M1445.77 731.73c0,-66.52 51.74,-113.82 121.21,-113.82 44.35,0 79.83,17.74 96.09,51.74l-39.92 23.65c-12.65,-18.57 -33.69,-29.69 -56.17,-29.69 -37.55,0 -68,30.45 -68,67.99 0,0.04 0,0.09 0,0.12 -0.01,0.53 -0.01,1.08 -0.01,1.62 0,37.55 30.45,68 67.99,68 22.49,0 43.54,-11.12 56.19,-29.71l39.92 23.65c-16.26,32.52 -51.74,51.74 -96.09,51.74 -69.48,0.01 -121.22,-47.29 -121.22,-115.29z"/>
   <path class="fil0" d="M1927.67 715.46l0 128.61 -53.21 0 0 -121.21c0,-39.91 -19.22,-59.13 -53.22,-59.13 -33.99,0 -62.09,22.18 -62.09,68l0 112.34 -53.22 0 0 -310.43 53.22 0.01 0 112.35c18.5,-18.07 43.35,-28.21 69.22,-28.21 1.56,0 3.16,0.04 4.71,0.11 54.68,0.02 94.59,31.06 94.59,97.58z"/>
   <path class="fil0" d="M1977.93 731.73c0,-66.52 50.26,-113.82 118.26,-113.82 68,0 119.74,47.31 119.74,113.82 0,66.52 -50.27,115.31 -119.74,115.31 -1.96,0.07 -3.98,0.14 -5.95,0.14 -62.03,0 -112.34,-50.31 -112.34,-112.34 0,-1.03 0.01,-2.1 0.04,-3.11l-0.01 0.01zm184.78 0c0.11,-1.49 0.16,-2.98 0.16,-4.47 0,-35.92 -29.12,-65.04 -65.04,-65.04 -0.54,0 -1.1,0.02 -1.63,0.02 -0.54,-0.01 -1.1,-0.02 -1.64,-0.02 -35.92,0 -65.05,29.12 -65.05,65.04 0,1.49 0.06,2.98 0.15,4.45 -0.09,1.48 -0.14,2.96 -0.14,4.44 0,36.73 29.79,66.52 66.52,66.52 0.05,0 0.1,0 0.15,0 0.57,0.01 1.17,0.02 1.74,0.02 35.92,0 65.05,-29.12 65.05,-65.04 0,-1.98 -0.1,-3.98 -0.27,-5.94l-0.01 0.02z"/>
   <path class="fil0" d="M2248.45 731.73c0,-66.52 50.27,-113.82 118.26,-113.82 68,0 119.74,47.31 119.74,113.82 0,66.52 -50.26,115.31 -119.74,115.31 -1.96,0.07 -3.97,0.14 -5.95,0.14 -62.04,0 -112.34,-50.31 -112.34,-112.34 0,-1.03 0.01,-2.1 0.04,-3.11l-0.01 0.01zm184.78 0c0.1,-1.49 0.16,-2.98 0.16,-4.47 0,-35.92 -29.12,-65.04 -65.05,-65.04 -0.54,0 -1.1,0.02 -1.63,0.02 -0.54,-0.01 -1.1,-0.02 -1.64,-0.02 -35.92,0 -65.04,29.12 -65.04,65.04 0,1.49 0.05,2.98 0.15,4.45 -0.1,1.48 -0.14,2.96 -0.14,4.44 0,36.73 29.79,66.52 66.52,66.52 0.05,0 0.1,0 0.14,0 0.58,0.01 1.18,0.02 1.76,0.02 35.92,0 65.04,-29.12 65.04,-65.04 0,-1.98 -0.09,-3.98 -0.27,-5.94l-0.01 0.02z"/>
   <polygon class="fil0" points="2536.71,533.64 2589.92,533.64 2589.92,844.07 2536.71,844.07 "/>
   <path class="fil0" d="M2969.83 776.07l-147.83 0 -28.08 68 -56.18 0 131.56 -292.69 53.22 0.01 133.04 292.69 -56.17 -0.01 -29.57 -68zm-19.22 -42.87l-54.69 -128.61 -54.69 128.61 109.39 0z"/>
   <polygon class="fil0" points="3088.09,533.64 3139.83,533.64 3139.83,844.07 3088.09,844.07 "/>
   <polygon class="fil0" points="3209.3,533.64 3261.04,533.64 3261.04,844.07 3209.3,844.07 "/>
   <path class="fil0" d="M3323.12 551.38c0.01,-18.78 15.23,-34.01 34.01,-34.01 18.77,0 33.99,15.22 33.99,33.99 0,18.77 -15.22,33.99 -33.99,33.99 -18.78,0 -34,-15.22 -34,-33.99l-0.01 0.01zm7.39 69.47l51.74 0 0 223.21 -51.74 0 0 -223.21z"/>
   <path class="fil0" d="M3639.47 712.51l0 131.56 -50.26 0 0 -26.61c-11.83,19.22 -36.96,29.57 -69.48,29.57 -32.52,0 -84.26,-28.09 -84.26,-66.52 0,-38.44 25.14,-66.52 93.13,-66.52l57.65 -0.01 0 -4.44c0,-29.57 -17.74,-48.78 -54.69,-48.78 -0.15,-0.01 -0.35,-0.01 -0.5,-0.01 -24.27,0 -47.95,7.79 -67.49,22.18l-20.69 -36.96c25.43,-18.37 56.03,-28.27 87.4,-28.27 2.39,0 4.83,0.07 7.2,0.18 65.04,0 102,31.04 102,94.61zm-53.22 62.09l0 -26.61 -53.21 0c-35.48,0 -45.83,13.3 -45.83,29.57 0,16.26 16.26,31.04 42.87,31.04 1.17,0.06 2.36,0.1 3.55,0.1 22.73,0 43.35,-13.37 52.63,-34.11l-0.01 0.01z"/>
   <path class="fil0" d="M3926.24 715.46l0 128.61 -51.74 0 0 -121.21c0,-39.91 -19.22,-59.13 -53.21,-59.13 -34,0 -62.09,22.18 -62.09,68l0 112.34 -53.22 0 0 -223.21 50.26 0 0 28.09c18.46,-19.89 44.38,-31.2 71.51,-31.2 1.79,0 3.58,0.05 5.36,0.14 53.22,0.02 93.12,31.06 93.12,97.58z"/>
   <path class="fil0" d="M3976.51 731.73c0,-66.52 50.26,-113.82 121.21,-113.82 44.35,0 79.83,17.74 96.09,51.74l-39.92 23.65c-12.66,-18.57 -33.7,-29.69 -56.17,-29.69 -37.55,0 -68,30.45 -68,67.99 0,0.04 0,0.09 0,0.12 -0.01,0.53 -0.01,1.08 -0.01,1.62 0,37.55 30.45,68 67.99,68 22.49,0 43.54,-11.12 56.19,-29.71l39.92 23.65c-16.26,32.52 -51.74,51.74 -96.09,51.74 -70.96,0.01 -121.22,-47.29 -121.22,-115.29z"/>
   <path class="fil0" d="M4445.11 749.47l-175.91 0c7.39,32.52 33.99,53.21 73.91,53.21 1.26,0.06 2.54,0.08 3.8,0.08 21.34,0 41.82,-8.56 56.81,-23.74l28.08 31.05c-21.04,23.64 -51.19,37.19 -82.85,37.19 -2.43,0 -4.9,-0.1 -7.32,-0.24 -75.39,0 -124.17,-48.78 -124.17,-115.31 -0.04,-1 -0.04,-2.02 -0.04,-3.04 0,-61.23 49.65,-110.87 110.87,-110.87 1.49,0 3.01,0.04 4.48,0.1 1.51,-0.05 3.08,-0.1 4.6,-0.1 60.4,0 109.39,48.99 109.39,109.39 0,2.01 -0.05,4.02 -0.16,6.01 0.02,0.7 0.03,1.43 0.03,2.15 0,4.74 -0.51,9.48 -1.51,14.11l-0.01 0.01zm-175.91 -35.48l127.12 0c-3,-31.07 -29.12,-54.79 -60.33,-54.79 -1.07,0 -2.17,0.04 -3.23,0.09 -0.63,-0.02 -1.28,-0.04 -1.92,-0.04 -31.45,0 -57.93,23.51 -61.65,54.73l0 0.01z"/>
  </g>
 </g>
</svg>
