<?xml version="1.0" encoding="UTF-8"?>
<!DOCTYPE svg PUBLIC "-//W3C//DTD SVG 1.1//EN" "http://www.w3.org/Graphics/SVG/1.1/DTD/svg11.dtd">
<!-- Creator: CorelDRAW -->
<svg xmlns="http://www.w3.org/2000/svg" xml:space="preserve" width="13.9306mm" height="13.9079mm" version="1.1" style="shape-rendering:geometricPrecision; text-rendering:geometricPrecision; image-rendering:optimizeQuality; fill-rule:evenodd; clip-rule:evenodd"
viewBox="0 0 86.21 86.07"
 xmlns:xlink="http://www.w3.org/1999/xlink"
 xmlns:xodm="http://www.corel.com/coreldraw/odm/2003">
 <defs>
  <style type="text/css">
   <![CDATA[
    .fil0 {fill:#0098DA}
   ]]>
  </style>
 </defs>
 <g id="Layer_x0020_1">
  <metadata id="CorelCorpID_0Corel-Layer"/>
  <g id="_2368928966576">
   <path class="fil0" d="M14.76 45.87c2.55,0.01 5.1,0 7.65,0 2.8,0 4.43,0.11 5.64,1.97 1.71,2.63 -0.9,3.79 3.84,3.78 6.68,-0.02 6.42,5.89 3.57,7.87 -1.57,1.1 -4.73,0.74 -6.88,0.74 -5.06,0 -10.19,-0.07 -15.24,0.01 0.17,4.59 3.7,11.55 6.75,15.08l2.67 2.79c0.38,0.41 0.68,0.57 0.91,0.91 -3.37,1.09 -6.93,2.06 -10.73,2.51 -12.43,1.48 -11.94,-4.63 -6.21,-12.27 1.14,-1.52 1.86,-2.24 3.03,-3.58 0.38,-0.44 1.36,-1.23 1.27,-1.95 -0.08,-0.63 -0.42,-2.38 -0.69,-2.75 -0.54,0.53 -0.99,0.93 -1.6,1.52l-2.97 3.36c-2.16,2.66 -4.89,6.4 -5.61,10.19 -0.82,4.29 1.38,6.76 4.46,7.85 3.41,1.21 7.83,0.73 11.4,0.09 18.24,-3.26 40.46,-16.61 54.34,-28.09 4.93,-4.08 12.2,-11.31 14.68,-17.07 3.91,-9.07 -2.66,-12.3 -11.36,-11.49 -2.09,0.2 -9.13,1.47 -10.49,2.29 0.02,0.03 0.06,0.03 0.06,0.08l1.7 1.46c1.11,0.93 0.79,0.65 2.47,0.24 3.96,-0.96 15,-3.1 15.84,1.98 0.84,5.06 -8.6,15.33 -10.59,16.52 -0.24,-0.4 -0.21,-0.59 -0.34,-1.13 -1.61,-0.2 -13.24,-0.02 -16.04,-0.04 -2.45,-0.02 -4.13,-1.41 -4.5,-3.51 -0.26,-1.44 -0.15,-2.2 -1.8,-2.24 -1.27,-0.04 -2.76,0.17 -3.95,-0.22 -4.39,-1.45 -3.93,-8.38 1.78,-8.4 2.71,-0.01 14.65,0.16 16.18,-0.05 -2.48,-2.9 -8.07,-6.04 -12.07,-7.22 -13.38,-3.95 -26.5,1.15 -33.97,12.17 -0.8,1.18 -2.96,4.94 -3.22,6.59z"/>
   <path class="fil0" d="M10.06 15.94l0 9.53c-0.15,0.69 -1.41,-0.02 -1.45,2.15 -0.01,0.95 -0.07,6.74 0.1,7.25 0.36,1.07 1.56,0.95 2.77,0.95 3.64,-0 2.89,-0.4 2.88,-8.05 -0,-1.06 -0.06,-1.45 -0.87,-1.85 -0.64,-0.33 -0.35,0.09 -0.57,-0.44l0 -7.62 8.58 5.27c0.04,-1.41 -0.05,-3.09 0.04,-4.41 0.09,-1.22 1.15,-1.7 1.97,-2.33 5.15,-3.98 12.64,-6.43 19.57,-6.43 7.39,0 13.91,2.36 19.48,6.37 2.77,2 2.03,1.63 2.07,6.73 0.66,-0.19 9.97,-6.17 11.73,-7.25 0.8,-0.49 1.74,-1.29 0.91,-2.41 -0.49,-0.65 -4.32,-1.92 -5.41,-2.35 -7.37,-2.87 -14.6,-5.82 -21.99,-8.61 -1.87,-0.71 -3.65,-1.45 -5.47,-2.15 -1.94,-0.74 -2.65,0.01 -5.64,1.18l-27.57 10.79c-0.84,0.33 -2.13,0.6 -2.47,1.41 -0.54,1.3 0.64,1.88 1.31,2.27z"/>
   <path class="fil0" d="M24.44 19.28l-0.01 9.3c3.63,-1.89 3.38,-2.31 8.18,-3.98 8.74,-3.05 19.37,-1.96 27.21,2.83 0.63,0.39 1.35,0.91 1.93,1.18l0.03 -9.33c-1.17,-0.71 -2.29,-1.63 -3.71,-2.45 -1.45,-0.84 -2.66,-1.38 -4.29,-2.03 -6.4,-2.59 -14.81,-2.57 -21.26,-0.03 -1.58,0.62 -2.86,1.17 -4.3,2.01 -1.94,1.13 -2.29,1.55 -3.78,2.51z"/>
   <path class="fil0" d="M30 82.91c0.63,0.81 5.01,2.07 5.82,2.27 4.1,1.03 6.24,0.96 10.12,0.78 0.13,-2.17 -0.38,-4.85 0.71,-6.51 1.11,-1.7 2.59,-1.98 5.21,-1.98 5.13,0 3.51,-0.11 4.39,-2.79 1.12,-3.42 4.5,-2.95 7.39,-2.95l5.13 -0.01c1.87,-3.23 4.68,-9.68 4.38,-14.33l-4.71 3.76c-7.52,5.99 -17.65,12.23 -26.41,16.54 -2.56,1.26 -9.53,4.51 -12.02,5.22z"/>
   <path class="fil0" d="M56.31 45.87l15.12 -0c-0.3,-1.88 -3.91,-8.14 -4.72,-8.52 -0.25,-0.12 -18.88,-0.24 -19.69,-0.03 -0.75,0.19 -1.36,1.15 -0.88,2.06 0.46,0.88 1.51,0.75 2.56,0.75 2.57,-0.01 3.7,0.16 4.95,1.66 1.47,1.76 0.18,4.09 2.66,4.09z"/>
   <path class="fil0" d="M13.02 57.28c1.2,0.31 15.55,0.07 18.88,0.09 1.01,0 1.99,0.1 2.42,-0.75 0.46,-0.92 -0.1,-1.87 -0.89,-2.06 -1.91,-0.46 -3.63,0.54 -5.58,-0.75 -3.56,-2.36 -0.06,-5.08 -4.42,-5.05 -2.39,0.01 -7.89,-0.14 -9.58,0.04 -0.68,2.44 -1.05,5.84 -0.82,8.5z"/>
   <path class="fil0" d="M48.84 84.66l0.03 0.83c4.62,-0.42 10.94,-4.03 14.35,-7.14 0.82,-0.75 3,-2.76 3.43,-3.72 -0.96,-0.05 -6.19,-0.12 -6.8,0.07 -1.02,0.32 -0.8,1.29 -1.07,2.38 -0.93,3.75 -4.8,3.29 -7.19,3.28 -1.11,-0 -2.21,-0.11 -2.6,0.84 -0.22,0.54 -0.13,2.75 -0.13,3.47z"/>
  </g>
 </g>
</svg>
