<svg xmlns="http://www.w3.org/2000/svg" xmlns:xlink="http://www.w3.org/1999/xlink" width="47" height="47" viewBox="0 0 47 47">
  <defs>
    <filter id="Ellipse_389" x="0" y="0" width="47" height="47" filterUnits="userSpaceOnUse">
      <feOffset dy="1" input="SourceAlpha"/>
      <feGaussianBlur stdDeviation="1.5" result="blur"/>
      <feFlood flood-color="#6b728e" flood-opacity="0.161"/>
      <feComposite operator="in" in2="blur"/>
      <feComposite in="SourceGraphic"/>
    </filter>
    <clipPath id="clip-path">
      <rect id="Rectangle_155239" data-name="Rectangle 155239" width="24" height="24" fill="#fff"/>
    </clipPath>
  </defs>
  <g id="Additional" transform="translate(-644.5 -4015.5)">
    <g transform="matrix(1, 0, 0, 1, 644.5, 4015.5)" filter="url(#Ellipse_389)">
      <circle id="Ellipse_389-2" data-name="Ellipse 389" cx="19" cy="19" r="19" transform="translate(4.5 3.5)" fill="#ecbd00"/>
    </g>
    <g id="Icon" transform="translate(656 4026)" clip-path="url(#clip-path)">
      <path id="Path_212878" data-name="Path 212878" d="M23,2.891V16.684a.236.236,0,0,0-.029.057,2.285,2.285,0,0,1-2.345,1.87C16.338,18.59,12.05,18.6,7.762,18.6a2.972,2.972,0,0,1-.618-.053A2.206,2.206,0,0,1,5.4,16.323c-.007-1.1,0-2.2,0-3.307q0-4.833,0-9.664a2.164,2.164,0,0,1,.914-1.909A5.559,5.559,0,0,1,7.316,1H21.109a.519.519,0,0,0,.1.04,2.228,2.228,0,0,1,1.3.777A2.746,2.746,0,0,1,23,2.891m-7.694,8h4.373v-2.2H15.294V4.321h-2.2V8.7H8.712V10.9h.271c1.3,0,2.591,0,3.887-.005.194,0,.238.057.237.242-.008,1.3-.005,2.606,0,3.909,0,.082.008.164.012.24h2.191Z" fill="#fff"/>
      <path id="Path_212879" data-name="Path 212879" d="M1,5.408H3.194V20.8H18.586V23H3.319A2.215,2.215,0,0,1,1,20.68V5.408Z" fill="#fff"/>
    </g>
  </g>
</svg>
