<svg xmlns="http://www.w3.org/2000/svg" xmlns:xlink="http://www.w3.org/1999/xlink" width="47" height="47" viewBox="0 0 47 47">
  <defs>
    <filter id="Ellipse_389" x="0" y="0" width="47" height="47" filterUnits="userSpaceOnUse">
      <feOffset dy="1" input="SourceAlpha"/>
      <feGaussianBlur stdDeviation="1.5" result="blur"/>
      <feFlood flood-color="#6b728e" flood-opacity="0.161"/>
      <feComposite operator="in" in2="blur"/>
      <feComposite in="SourceGraphic"/>
    </filter>
    <clipPath id="clip-path">
      <rect id="Rectangle_7318" data-name="Rectangle 7318" width="24" height="24" fill="#fafafa"/>
    </clipPath>
  </defs>
  <g id="Group_83539" data-name="Group 83539" transform="translate(-559.5 -61.5)">
    <g id="Group_83742" data-name="Group 83742">
      <g transform="matrix(1, 0, 0, 1, 559.5, 61.5)" filter="url(#Ellipse_389)">
        <circle id="Ellipse_389-2" data-name="Ellipse 389" cx="19" cy="19" r="19" transform="translate(4.5 3.5)" fill="#028aed"/>
      </g>
      <g id="Icon-24px" transform="translate(571 72)" clip-path="url(#clip-path)">
        <path id="Path_77640" data-name="Path 77640" d="M1,17.874V6.125a.819.819,0,0,0,.041-.114A2.5,2.5,0,0,1,3.533,4Q12.007,4,20.48,4A2.472,2.472,0,0,1,23,6.438Q23.005,12,23,17.56A2.471,2.471,0,0,1,20.48,20Q12,20,3.512,20A2.484,2.484,0,0,1,1.5,19.009,2.956,2.956,0,0,1,1,17.874m6.874-1.427H11.18c.557,0,.818-.253.819-.786,0-.1,0-.2,0-.292a2.48,2.48,0,0,0-2.514-2.481c-1.073-.014-2.146-.012-3.219,0a2.494,2.494,0,0,0-1.96.92,2.581,2.581,0,0,0-.56,1.831c.019.561.26.808.844.808H7.874m2.287-6.675A2.287,2.287,0,1,0,7.875,12a2.261,2.261,0,0,0,2.286-2.227m6.878-.439c.837,0,1.673,0,2.51,0A.666.666,0,1,0,19.563,8C17.883,8,16.2,8,14.522,8.008a.864.864,0,0,0-.463.177.609.609,0,0,0-.179.718.682.682,0,0,0,.649.429c.836,0,1.673,0,2.51,0m.005,3.552c.815,0,1.63.006,2.445-.005a1.014,1.014,0,0,0,.463-.122.61.61,0,0,0,.271-.708.682.682,0,0,0-.686-.5c-.672-.007-1.344,0-2.017,0-.972,0-1.945,0-2.917,0a.691.691,0,0,0-.761.584.66.66,0,0,0,.692.747c.837.006,1.673,0,2.51,0m0,2.23h0c-.808,0-1.616,0-2.424,0a1.083,1.083,0,0,0-.337.042.648.648,0,0,0-.434.747.7.7,0,0,0,.736.541q2.457,0,4.913,0a.964.964,0,0,0,.409-.1.635.635,0,0,0,.323-.727.668.668,0,0,0-.655-.5c-.843-.006-1.687,0-2.531,0" fill="#fafafa"/>
      </g>
    </g>
  </g>
</svg>
