<?xml version="1.0" encoding="UTF-8"?>
<!DOCTYPE svg PUBLIC "-//W3C//DTD SVG 1.1//EN" "http://www.w3.org/Graphics/SVG/1.1/DTD/svg11.dtd">
<!-- Creator: CorelDRAW -->
<svg xmlns="http://www.w3.org/2000/svg" xml:space="preserve" width="5.1687mm" height="5.168mm" version="1.1" style="shape-rendering:geometricPrecision; text-rendering:geometricPrecision; image-rendering:optimizeQuality; fill-rule:evenodd; clip-rule:evenodd"
viewBox="0 0 33.42 33.42"
 xmlns:xlink="http://www.w3.org/1999/xlink"
 xmlns:xodm="http://www.corel.com/coreldraw/odm/2003">
 <defs>
  <style type="text/css">
   <![CDATA[
    .fil0 {fill:#008DD2}
   ]]>
  </style>
 </defs>
 <g id="Layer_x0020_1">
  <metadata id="CorelCorpID_0Corel-Layer"/>
  <path class="fil0" d="M14.76 33.39l-0 -11.64c-0.76,0 -2.81,0.12 -3.31,-0.16 -0.8,-0.45 -0.57,-1.8 -0.57,-2.92 0,-3.48 -0.19,-3.13 3.88,-3.13 0,-1.45 -0.03,-2.93 0,-4.37 0.06,-2.31 1.4,-4.31 3.48,-5.23 1.31,-0.58 2.32,-0.5 3.84,-0.5 0.77,0 3.78,-0.09 4.28,0.06 0.57,0.17 0.81,0.66 0.81,1.37 0,0.73 -0,1.46 -0,2.19 0,1.75 0.22,2.6 -1.75,2.6 -0.84,-0 -3.83,-0.12 -4.37,0.1 -0.21,0.51 -0.1,3.01 -0.1,3.78 7.22,0.03 6.58,-0.73 5.52,4.7 -0.14,0.71 -0.25,1.24 -0.88,1.44 -0.5,0.16 -3.83,0.07 -4.61,0.07l-0.03 11.64c2.73,-0.01 4.82,0.24 7.18,-0.8 1.87,-0.82 3.19,-2.2 4.12,-3.81 1.24,-2.14 1.12,-4.12 1.12,-6.84 -0,-2.64 -0,-5.29 0,-7.93 0,-4.9 0.61,-9.18 -3.63,-12.26 -1.82,-1.32 -3.43,-1.74 -6.21,-1.74l-11.93 0c-2.55,0 -4.62,-0.2 -6.9,1.06 -0.87,0.49 -1.75,1.15 -2.27,1.73 -2.79,3.14 -2.43,5.53 -2.43,9.46l0 11.93c0.01,2.44 0.86,4.57 2.03,5.93 3.3,3.84 6.56,3.26 12.72,3.26z"/>
 </g>
</svg>
