<?xml version="1.0" encoding="UTF-8"?>
<!DOCTYPE svg PUBLIC "-//W3C//DTD SVG 1.1//EN" "http://www.w3.org/Graphics/SVG/1.1/DTD/svg11.dtd">
<!-- Creator: CorelDRAW -->
<svg xmlns="http://www.w3.org/2000/svg" xml:space="preserve" width="5.1696mm" height="5.1688mm" version="1.1" style="shape-rendering:geometricPrecision; text-rendering:geometricPrecision; image-rendering:optimizeQuality; fill-rule:evenodd; clip-rule:evenodd"
viewBox="0 0 14.15 14.15"
 xmlns:xlink="http://www.w3.org/1999/xlink"
 xmlns:xodm="http://www.corel.com/coreldraw/odm/2003">
 <defs>
  <style type="text/css">
   <![CDATA[
    .fil0 {fill:#008DD2}
   ]]>
  </style>
 </defs>
 <g id="Layer_x0020_1">
  <metadata id="CorelCorpID_0Corel-Layer"/>
  <g id="_2368897078512">
   <path class="fil0" d="M6.69 3.65c2.01,-0.25 3.6,1.28 3.81,3.01 0.24,2.03 -1.26,3.62 -3.02,3.83 -2.02,0.24 -3.61,-1.26 -3.82,-3.02 -0.23,-1.91 1.12,-3.59 3.04,-3.83zm3.97 -1.15c0.5,-0.12 0.9,0.22 0.99,0.61 0.11,0.5 -0.23,0.9 -0.62,0.99 -1.05,0.22 -1.41,-1.35 -0.36,-1.6zm-7.34 -2.45c-1.85,0.24 -3.29,1.74 -3.31,3.76 -0.01,0.62 -0.04,6.5 0.03,7.02 0.25,1.84 1.75,3.28 3.77,3.3 0.62,0.01 6.5,0.04 7.03,-0.03 1.84,-0.25 3.28,-1.75 3.3,-3.77l0 -5.26c-0,-0.54 0.04,-1.25 -0.03,-1.76 -0.24,-1.83 -1.75,-3.28 -3.77,-3.29 -0.64,-0.01 -6.46,-0.04 -7.01,0.03z"/>
   <path class="fil0" d="M4.62 7.29c0.1,1.28 1.25,2.36 2.67,2.24 1.28,-0.11 2.36,-1.24 2.24,-2.67 -0.11,-1.29 -1.24,-2.36 -2.67,-2.24 -1.29,0.11 -2.35,1.24 -2.24,2.67z"/>
  </g>
 </g>
</svg>
