<?xml version="1.0" encoding="UTF-8"?>
<!DOCTYPE svg PUBLIC "-//W3C//DTD SVG 1.1//EN" "http://www.w3.org/Graphics/SVG/1.1/DTD/svg11.dtd">
<!-- Creator: CorelDRAW -->
<svg xmlns="http://www.w3.org/2000/svg" xml:space="preserve" width="5.1694mm" height="5.1689mm" version="1.1" style="shape-rendering:geometricPrecision; text-rendering:geometricPrecision; image-rendering:optimizeQuality; fill-rule:evenodd; clip-rule:evenodd"
viewBox="0 0 19.56 19.56"
 xmlns:xlink="http://www.w3.org/1999/xlink"
 xmlns:xodm="http://www.corel.com/coreldraw/odm/2003">
 <defs>
  <style type="text/css">
   <![CDATA[
    .fil0 {fill:#008DD2;fill-rule:nonzero}
   ]]>
  </style>
 </defs>
 <g id="Layer_x0020_1">
  <metadata id="CorelCorpID_0Corel-Layer"/>
  <path class="fil0" d="M15.49 0l-11.41 0c-2.25,0 -4.08,1.82 -4.08,4.08l0 11.41c0,2.25 1.82,4.08 4.08,4.08l11.41 0c2.25,0 4.08,-1.83 4.08,-4.08l0 -11.41c0,-2.25 -1.82,-4.08 -4.08,-4.08zm-8.97 15.49l-2.45 0 0 -8.97 2.45 0 0 8.97zm-1.22 -10c-0.79,0 -1.43,-0.64 -1.43,-1.44 0,-0.79 0.64,-1.44 1.43,-1.44 0.79,0 1.43,0.64 1.43,1.44 0,0.79 -0.64,1.44 -1.43,1.44zm11.01 10l-2.45 0 0 -4.57c0,-2.74 -3.26,-2.54 -3.26,0l0 4.57 -2.45 0 0 -8.97 2.45 0 0 1.44c1.14,-2.11 5.71,-2.26 5.71,2.02l0 5.51z"/>
 </g>
</svg>
